<?xml version="1.0" encoding="utf-8"?>
<!-- Generator: Adobe Illustrator 15.1.0, SVG Export Plug-In . SVG Version: 6.00 Build 0)  -->
<!DOCTYPE svg PUBLIC "-//W3C//DTD SVG 1.1//EN" "http://www.w3.org/Graphics/SVG/1.1/DTD/svg11.dtd">
<svg version="1.1" id="Capa_1" xmlns="http://www.w3.org/2000/svg" xmlns:xlink="http://www.w3.org/1999/xlink" 
	viewBox="-48.722 405.249 100 150">
	<path fill="#11A490" d="M-9.14,454.868c0.288,0,0.647,0.071,0.936,0.071v-0.071C-8.493,454.868-8.853,454.868-9.14,454.868z"/>
	<path fill="#C7C1A8" d="M-38.358,468.326c-6.477,7.196-10.363,16.624-10.363,27.059c0,22.382,18.135,40.518,40.517,40.518v-26.844
		c-7.557,0-13.674-6.117-13.674-13.674c0-7.196,5.613-13.17,12.738-13.602C-20.727,481.496-31.09,476.387-38.358,468.326z"/>
	<path fill="#E20613" d="M-8.205,481.783v-0.072c-0.288,0-0.648,0-0.936,0.072C-8.853,481.783-8.493,481.783-8.205,481.783z"/>
	<path fill="#11A490" d="M-9.14,454.868c-7.125-0.504-12.738-6.405-12.738-13.602v-3.599l0,0v-18.352h-26.843c0,0,0,0.576,0,21.95
		c0,10.435,3.958,19.862,10.363,27.06C-31.09,460.266-20.727,455.156-9.14,454.868z"/>
	<rect x="1.367" y="419.316" fill="#1C2F4B" width="26.987" height="116.586"/>
	<g>
		<circle fill="#E20613" cx="48.72" cy="522.373" r="13.53"/>
	</g>
	<path fill="#1C2F4B" d="M-38.358,468.326c7.196,8.061,17.631,13.17,29.146,13.457c0.288,0,0.648-0.072,0.936-0.072v-26.771
		c-0.288,0-0.647,0-0.936-0.071C-20.727,455.156-31.09,460.266-38.358,468.326z"/>
	<path fill="#1C2F4B" d="M-38.358,468.326c7.196,8.061,17.631,13.17,29.146,13.457c0.288,0,0.648-0.072,0.936-0.072v-26.771
		c-0.288,0-0.647,0-0.936-0.071C-20.727,455.156-31.09,460.266-38.358,468.326z"/>
</svg>
